HIERARCHY
ROOT Hips
{
  OFFSET 0 0 0
  CHANNELS 6 Xposition Yposition Zposition Zrotation Xrotation Yrotation
  JOINT Spine
  {
    OFFSET 0 10.1816 0.131521
    CHANNELS 3 Zrotation Xrotation Yrotation
    JOINT Spine1
    {
      OFFSET 0 10.0835 -1.0008
      CHANNELS 3 Zrotation Xrotation Yrotation
      JOINT Spine2
      {
        OFFSET 0 9.10001 -1.37342
        CHANNELS 3 Zrotation Xrotation Yrotation
        JOINT Neck
        {
          OFFSET 0 16.6717 -2.51617
          CHANNELS 3 Zrotation Xrotation Yrotation
          JOINT Head
          {
            OFFSET 0 9.61788 1.68501
            CHANNELS 3 Zrotation Xrotation Yrotation
            End Site
            {
              OFFSET 0 0 0
            }
          }
        }
        JOINT LeftShoulder
        {
          OFFSET 4.57045 10.946 -2.62799
          CHANNELS 3 Zrotation Xrotation Yrotation
          JOINT LeftArm
          {
            OFFSET 10.5924 -0.524583 -2.23212
            CHANNELS 3 Zrotation Xrotation Yrotation
            JOINT LeftForeArm
            {
              OFFSET 27.8415 -8.94286e-05 3.74589e-05
              CHANNELS 3 Zrotation Xrotation Yrotation
              JOINT LeftHand
              {
                OFFSET 28.3288 -1.74407e-05 3.78045e-05
                CHANNELS 3 Zrotation Xrotation Yrotation
                End Site
                {
                  OFFSET 0 0 0
                }
              }
            }
          }
        }
        JOINT RightShoulder
        {
          OFFSET -4.56997 10.9462 -2.62802
          CHANNELS 3 Zrotation Xrotation Yrotation
          JOINT RightArm
          {
            OFFSET -10.5928 -0.524798 -2.2321
            CHANNELS 3 Zrotation Xrotation Yrotation
            JOINT RightForeArm
            {
              OFFSET -27.8415 -3.30792e-05 1.16763e-05
              CHANNELS 3 Zrotation Xrotation Yrotation
              JOINT RightHand
              {
                OFFSET -28.3288 0 5.5816e-05
                CHANNELS 3 Zrotation Xrotation Yrotation
                End Site
                {
                  OFFSET 0 0 0
                }
              }
            }
          }
        }
      }
    }
  }
  JOINT LeftUpLeg
  {
    OFFSET 8.20778 -6.75171 -1.59956
    CHANNELS 3 Zrotation Xrotation Yrotation
    JOINT LeftLeg
    {
      OFFSET 0 -44.3705 0.284643
      CHANNELS 3 Zrotation Xrotation Yrotation
      JOINT LeftFoot
      {
        OFFSET 0 -44.4279 -2.98219
        CHANNELS 3 Zrotation Xrotation Yrotation
        JOINT LeftToeBase
        {
          OFFSET 0 -8.72867 10.7106
          CHANNELS 3 Zrotation Xrotation Yrotation
          End Site
          {
            OFFSET 0 0 0
          }
        }
      }
    }
  }
  JOINT RightUpLeg
  {
    OFFSET -8.2078 -6.75166 -1.59956
    CHANNELS 3 Zrotation Xrotation Yrotation
    JOINT RightLeg
    {
      OFFSET 0 -44.3705 0.286156
      CHANNELS 3 Zrotation Xrotation Yrotation
      JOINT RightFoot
      {
        OFFSET 0 -44.4277 -2.98379
        CHANNELS 3 Zrotation Xrotation Yrotation
        JOINT RightToeBase
        {
          OFFSET 0 -8.72867 10.7106
          CHANNELS 3 Zrotation Xrotation Yrotation
          End Site
          {
            OFFSET 0 0 0
          }
        }
      }
    }
  }
}
MOTION
Frames:	11
Frame Time:	0.0333333
-120.627 123.47 -21.4162 -1.68831 7.29662 -36.0298 -1.08707 6.21106 4.75588 -3.7368 12.3311 8.10709 -3.73681 12.3311 8.10709 -0.135857 5.41626 6.04199 0.702886 -2.59771 4.92247 24.2496 -4.36664 21.588 -65.7459 -28.8255 -84.1687 22.7645 -13.5811 -55.9912 45.8285 33.5544 -16.2329 -34.2462 -7.29989 -4.383 64.8531 -32.9894 89.6988 -9.63207 -38.9342 27.4776 -46.537 9.16734 45.8837 79.8687 -60.6272 74.3821 -15.5573 68.6512 19.5385 4.10229 -10.3848 -0.726778 -3.2986 -49.1451 7.66406 -32.506 -35.4096 -41.0494 -179.182 65.1604 -169.672 4.39648 -14.3409 -1.38749 1.64922 15.2752 -7.79378 
-123.065 117.603 -19.3123 -4.26635 5.92052 -33.4078 -0.77198 5.41256 4.21802 -2.12945 10.7805 7.1401 -2.12946 10.7805 7.1401 0.142807 7.07339 7.14852 0.757894 -1.83707 6.15493 25.1952 -1.36213 17.2041 -62.5487 -33.1838 -83.9938 23.1903 -13.5802 -49.9658 42.3415 32.0059 -15.6815 -36.1371 -6.72166 -1.50334 64.1192 -36.193 89.6017 -7.96984 -39.6775 18.6532 -46.0021 7.92686 48.137 96.7086 -59.7325 90.5489 -32.2896 81.256 37.5217 1.85365 -7.9539 -0.831372 -9.29461 -54.5095 -3.60891 -48.4075 -54.6966 -55.6967 179.608 56.2812 -167.435 7.11501 -19.5613 -1.00417 -0.677561 4.60744 -4.30843 
-126.215 112.967 -16.5351 -7.38175 4.1483 -29.2418 -0.0600904 5.00862 3.4862 -0.681407 10.0024 5.9809 -0.681408 10.0024 5.98091 0.399455 8.02352 8.07522 0.791425 -1.40622 7.19041 27.4442 2.21892 12.1451 -58.6539 -38.3238 -81.8726 23.5885 -16.1334 -44.8995 38.8717 30.4474 -14.9936 -36.5344 -6.36844 0.323261 62.8052 -39.644 89.9289 -6.57835 -40.4811 10.7971 -45.4394 7.59478 50.1723 107.405 -57.4143 100.824 -124.09 85.4472 128.495 0.219452 -7.11434 -0.796748 -15.0586 -56.6014 -14.6996 -74.6186 -66.5758 -84.1562 176.46 54.3337 -160.798 9.93369 -21.1829 -0.803013 1.56583 -7.89269 -0.11724 
-129.604 109.973 -13.8218 -9.76452 1.36392 -24.1523 0.988406 5.17245 3.18905 0.299278 10.3332 4.71026 0.299276 10.3332 4.71025 0.660176 8.13594 8.86268 0.792548 -1.28059 8.05144 29.5518 3.67183 7.19887 -51.3932 -43.4533 -74.9366 21.7157 -21.0174 -41.0168 37.2228 28.3217 -15.2136 -35.4863 -7.20296 -0.229633 62.1953 -38.6157 89.7876 -7.85823 -39.0323 11.6267 -44.3727 11.3023 47.8167 110.627 -55.3223 104.945 -158.525 80.5309 161.567 -0.515989 -8.36299 -0.72537 -20.1377 -55.0681 -24.9316 -102.415 -70.0233 -116.548 170.841 58.6671 -150.422 8.88158 -18.9563 -1.36678 -1.74779 -19.2527 1.84457 
-133.598 108.101 -11.3343 -10.5353 -3.39196 -18.4858 1.5408 5.81944 2.83055 0.717766 11.6111 3.41062 0.717762 11.6111 3.41062 0.958364 7.49173 9.5161 0.842244 -1.44693 8.76139 29.5996 3.01973 3.29075 -39.4832 -47.0505 -64.5504 17.1277 -25.2856 -37.1588 38.367 24.5356 -16.7732 -34.2851 -8.23264 -3.13252 61.1273 -34.1462 88.839 -10.0934 -35.4619 17.5461 -43.5119 15.0826 41.2899 107.682 -53.7221 104.164 -165.334 76.6665 166.637 -0.997989 -9.19906 -0.761629 -24.5362 -52.4641 -34.3571 -108.704 -71.4803 -126.523 165.974 63.3519 -142.922 5.65298 -17.7729 -1.61745 -4.85187 -32.0904 -0.783667 
-137.65 107.18 -8.7865 -9.65677 -8.13033 -12.2512 1.52309 6.62234 2.17494 0.652388 13.2157 2.21242 0.652387 13.2157 2.21242 1.31561 6.35007 10.0352 0.977864 -1.83468 9.33754 28.0038 2.54504 0.815767 -26.9141 -49.7693 -54.6009 12.5097 -27.8166 -35.5512 39.2889 19.8136 -16.9888 -33.7714 -7.69246 -6.76732 59.2867 -29.5601 84.4853 -13.4353 -32.3301 29.988 -40.8616 18.4213 29.3002 102.913 -53.0782 101.922 -169.718 74.1889 168.283 -1.99769 -9.20007 -0.833449 -26.7103 -50.4112 -40.8956 -108.658 -73.1832 -130.004 166.196 67.7836 -148.381 3.86099 -15.8509 -1.63515 7.07331 -48.3447 10.6647 
-141.366 107.054 -6.61069 -6.76915 -11.2168 -4.85858 0.905067 7.22233 1.17239 0.329717 14.4353 1.18388 0.32972 14.4353 1.18388 1.71614 4.87021 10.4485 1.17344 -2.38203 9.79895 25.9552 3.07854 -0.259035 -18.5949 -52.7863 -50.1246 8.90313 -27.6668 -33.011 40.6366 13.8369 -17.6812 -33.8652 -5.71114 -8.55143 56.9456 -29.0119 77.3966 -15.9876 -31.124 44.4755 -37.5619 21.6221 15.741 97.473 -54.6993 99.9281 -173.482 73.7765 168.506 -3.7662 -9.5564 -0.839906 -25.9235 -48.462 -43.1265 -106.102 -71.6098 -127.369 173.865 64.9811 -162.525 4.02469 -18.3525 -1.49399 11.9514 -51.9857 16.6496 
-144.704 107.48 -4.31073 -3.62857 -12.0407 1.19285 0.208771 7.44691 0.243461 0.0393745 14.8935 0.306318 0.0393775 14.8935 0.306318 2.14321 2.88553 10.8012 1.41129 -3.08111 10.161 23.5738 3.41732 0.291435 -17.19 -54.5794 -50.9532 7.95297 -26.6341 -31.1804 40.5409 9.07599 -19.1365 -34.8062 -4.09304 -6.9907 55.3409 -30.9371 69.5239 -18.101 -32.1716 58.6884 -32.7102 25.8466 2.99248 93.2989 -56.3615 98.1289 -176.406 74.0181 168.527 -5.4522 -10.1168 -0.874639 -25.7294 -47.008 -44.063 -106.095 -69.4824 -127.485 178.411 61.0801 -172.296 2.61124 -18.1458 -1.50873 16.7851 -56.5043 21.3229 
-147.674 108.106 -2.54697 -1.73787 -11.1841 4.57937 -0.187128 7.35669 -0.343228 -0.164026 14.713 -0.393713 -0.164025 14.713 -0.393713 2.60549 0.0724194 11.1183 1.71326 -4.00657 10.4184 20.9854 2.2794 2.51256 -19.8936 -54.5176 -55.5774 7.98922 -25.6823 -28.3535 39.7284 5.9708 -22.4053 -36.1737 -3.9317 -3.32928 54.4057 -33.5045 63.7026 -19.7605 -34.2305 69.0364 -26.8901 29.9318 -7.06269 92.0767 -56.8731 97.5983 -177.547 74.9243 168.403 -6.29331 -10.0822 -1.00152 -27.319 -45.7165 -45.2009 -105.931 -68.0247 -128.349 178.618 58.9726 -175.221 -1.09295 -16.711 -1.45518 21.2859 -61.0706 24.5898 
-150.449 108.863 -1.06038 -0.466931 -9.72905 7.07067 -0.567675 7.14417 -0.709247 -0.560607 14.286 -0.811523 -0.560607 14.286 -0.811524 3.10845 -3.5073 11.3768 2.10331 -5.35543 10.5503 19.3179 0.325188 5.5141 -23.0873 -53.2976 -61.2667 7.22687 -24.8278 -24.9604 39.4841 3.3625 -26.1134 -36.2889 -4.22017 -0.368569 53.9205 -35.065 60.623 -21.6447 -36.6414 76.0783 -20.398 33.2971 -15.0784 91.8586 -57.246 97.5079 -177.49 76.3516 168.13 -6.52725 -9.69061 -1.14725 -29.9619 -44.3248 -46.6445 -104.972 -67.2288 -128.08 176.788 57.9865 -175.406 -4.85189 -16.2271 -1.25942 25.2476 -64.4695 27.2722 
-153.045 109.682 0.229105 0.945895 -8.11696 9.50669 -1.18099 6.96546 -0.959661 -1.38304 13.921 -0.905201 -1.38304 13.921 -0.905204 3.60874 -7.09745 11.516 2.55867 -7.29426 10.5622 19.4251 -0.304685 7.77888 -23.8144 -52.9231 -63.8062 5.63332 -24.2455 -22.6313 40.0012 -0.147413 -28.0963 -34.3728 -3.27631 0.603829 53.1287 -35.9257 60.5299 -23.8685 -39.1198 80.5566 -14.0646 35.534 -22.077 91.0089 -58.4325 96.8172 -177.621 78.2294 167.869 -6.71943 -9.58888 -1.21319 -32.1379 -43.2751 -46.7979 -104.083 -66.7572 -127.309 174.952 57.5847 -175.363 -7.03127 -16.69 -1.13784 28.0827 -66.7279 29.8685 
